HIERARCHY
ROOT Beta:Hips
{
	OFFSET 0.00 0.00 0.00
	CHANNELS 6 Xposition Yposition Zposition Yrotation Xrotation Zrotation
	JOINT Beta:Spine
	{
		OFFSET	0.0000	9.2263	1.5771
		CHANNELS 3 Xrotation Yrotation Zrotation
		JOINT Beta:Spine1
		{
			OFFSET	0.0000	16.2540	-0.1656
			CHANNELS 3 Xrotation Yrotation Zrotation
			JOINT Beta:Spine2
			{
				OFFSET	0.0000	13.6396	-1.2923
				CHANNELS 3 Xrotation Yrotation Zrotation
				JOINT Beta:Neck
				{
					OFFSET	0.0000	13.8774	-4.3542
					CHANNELS 3 Xrotation Yrotation Zrotation
					JOINT Beta:Neck1
					{
						OFFSET	0.0000	4.3400	0.9269
						CHANNELS 3 Xrotation Yrotation Zrotation
						JOINT Beta:Head
						{
							OFFSET	0.0000	4.0266	0.8585
							CHANNELS 3 Xrotation Yrotation Zrotation
							End Site
							{
								OFFSET 0.0000 23.0297 0.1231
							}
						}
					}
				}
				JOINT Beta:LeftShoulder
				{
					OFFSET	6.1442	10.1870	-3.7932
					CHANNELS 3 Zrotation Xrotation Yrotation
					JOINT Beta:LeftArm
					{
						OFFSET	12.3191	-1.1130	-1.7935
						CHANNELS 3 Zrotation Xrotation Yrotation
						JOINT Beta:LeftForeArm
						{
							OFFSET	27.6870	0.0000	0.0000
							CHANNELS 3 Xrotation Zrotation Yrotation
							JOINT Beta:LeftHand
							{
								OFFSET	27.8738	0.0000	0.0000
								CHANNELS 3 Zrotation Yrotation Xrotation
								JOINT Beta:LeftHandThumb1
								{
									OFFSET	2.3785	-1.0029	2.6209
									CHANNELS 3 Zrotation Xrotation Yrotation
									JOINT Beta:LeftHandThumb2
									{
										OFFSET	3.3624	-1.0029	2.8398
										CHANNELS 3 Zrotation Xrotation Yrotation
										JOINT Beta:LeftHandThumb3
										{
											OFFSET	4.5018	-1.3445	2.1783
											CHANNELS 3 Zrotation Xrotation Yrotation
											End Site
											{
												OFFSET 2.6000 -1.0000 1.0000
											}
										}
									}
								}
								JOINT Beta:LeftHandMiddle1
								{
									OFFSET	10.4639	0.6148	0.4298
									CHANNELS 3 Zrotation Xrotation Yrotation
									JOINT Beta:LeftHandMiddle2
									{
										OFFSET	5.7921	0.0000	0.0000
										CHANNELS 3 Zrotation Xrotation Yrotation
										JOINT Beta:LeftHandMiddle3
										{
											OFFSET	3.7132	0.0000	0.0000
											CHANNELS 3 Zrotation Xrotation Yrotation
											End Site
											{
												OFFSET 2.3000 0.0000 0.0000
											}
										}
									}
								}
								JOINT Beta:LeftHandIndex1
								{
									OFFSET	10.3945	0.6148	2.7055
									CHANNELS 3 Zrotation Xrotation Yrotation
									JOINT Beta:LeftHandIndex2
									{
										OFFSET	5.5493	0.0000	0.0000
										CHANNELS 3 Zrotation Xrotation Yrotation
										JOINT Beta:LeftHandIndex3
										{
											OFFSET	3.3911	0.0000	0.0000
											CHANNELS 3 Zrotation Xrotation Yrotation
											End Site
											{
												OFFSET 2.5000 0.0000 0.0000
											}
										}
									}
								}
								JOINT Beta:LeftHandRing1
								{
									OFFSET	10.3252	0.3211	-1.8755
									CHANNELS 3 Zrotation Xrotation Yrotation
									JOINT Beta:LeftHandRing2
									{
										OFFSET	5.4452	0.0000	0.0000
										CHANNELS 3 Zrotation Xrotation Yrotation
										JOINT Beta:LeftHandRing3
										{
											OFFSET	3.7132	0.0000	0.0000
											CHANNELS 3 Zrotation Xrotation Yrotation
											End Site
											{
												OFFSET 2.0000 0.0000 0.0000
											}
										}
									}
								}
								JOINT Beta:LeftHandPinky1
								{
									OFFSET	10.0130	-0.0783	-3.9671
									CHANNELS 3 Zrotation Xrotation Yrotation
									JOINT Beta:LeftHandPinky2
									{
										OFFSET	3.6763	0.0000	0.0000
										CHANNELS 3 Zrotation Xrotation Yrotation
										JOINT Beta:LeftHandPinky3
										{
											OFFSET	2.8113	0.0000	0.0000
											CHANNELS 3 Zrotation Xrotation Yrotation
											End Site
											{
												OFFSET 2.9000 0.0000 0.0000
											}
										}
									}
								}
							}
						}
					}
				}
				JOINT Beta:RightShoulder
				{
					OFFSET	-6.1402	10.1870	-3.7932
					CHANNELS 3 Zrotation Xrotation Yrotation
					JOINT Beta:RightArm
					{
						OFFSET	-12.3231	-1.1130	-1.7935
						CHANNELS 3 Zrotation Xrotation Yrotation
						JOINT Beta:RightForeArm
						{
							OFFSET	-27.6870	0.0000	0.0000
							CHANNELS 3 Xrotation Zrotation Yrotation
							JOINT Beta:RightHand
							{
								OFFSET	-27.8738	0.0000	0.0000
								CHANNELS 3 Zrotation Yrotation Xrotation
								JOINT Beta:RightHandThumb1
								{
									OFFSET	-2.5178	-0.9367	2.5137
									CHANNELS 3 Zrotation Xrotation Yrotation
									JOINT Beta:RightHandThumb2
									{
										OFFSET	-3.2638	-1.0870	2.9669
										CHANNELS 3 Zrotation Xrotation Yrotation
										JOINT Beta:RightHandThumb3
										{
											OFFSET	-4.4165	-1.3703	2.1350
											CHANNELS 3 Zrotation Xrotation Yrotation
											End Site
											{
												OFFSET -2.6000 -1.0000 1.0000
											}
										}
									}
								}
								JOINT Beta:RightHandIndex1
								{
									OFFSET	-10.4665	0.4896	2.7120
									CHANNELS 3 Zrotation Xrotation Yrotation
									JOINT Beta:RightHandIndex2
									{
										OFFSET	-5.3768	0.0000	0.0000
										CHANNELS 3 Zrotation Xrotation Yrotation
										JOINT Beta:RightHandIndex3
										{
											OFFSET	-3.3855	0.0000	0.0000
											CHANNELS 3 Zrotation Xrotation Yrotation
											End Site
											{
												OFFSET -2.6000 0.0000 0.0000
											}
										}
									}
								}
								JOINT Beta:RightHandMiddle1
								{
									OFFSET	-10.7596	0.4896	0.4278
									CHANNELS 3 Zrotation Xrotation Yrotation
									JOINT Beta:RightHandMiddle2
									{
										OFFSET	-5.6168	0.0000	0.0000
										CHANNELS 3 Zrotation Xrotation Yrotation
										JOINT Beta:RightHandMiddle3
										{
											OFFSET	-3.7364	0.0000	0.0000
											CHANNELS 3 Zrotation Xrotation Yrotation
											End Site
											{
												OFFSET -2.3000 0.0000 0.0000
											}
										}
									}
								}
								JOINT Beta:RightHandRing1
								{
									OFFSET	-10.4702	0.3879	-1.9363
									CHANNELS 3 Zrotation Xrotation Yrotation
									JOINT Beta:RightHandRing2
									{
										OFFSET	-5.4013	0.0000	0.0000
										CHANNELS 3 Zrotation Xrotation Yrotation
										JOINT Beta:RightHandRing3
										{
											OFFSET	-3.3916	0.0000	0.0000
											CHANNELS 3 Zrotation Xrotation Yrotation
											End Site
											{
												OFFSET -2.2000 0.0000 0.0000
											}
										}
									}
								}
								JOINT Beta:RightHandPinky1
								{
									OFFSET	-9.9715	-0.1191	-3.9540
									CHANNELS 3 Zrotation Xrotation Yrotation
									JOINT Beta:RightHandPinky2
									{
										OFFSET	-3.6528	0.0000	0.0000
										CHANNELS 3 Zrotation Xrotation Yrotation
										JOINT Beta:RightHandPinky3
										{
											OFFSET	-2.7820	0.0000	0.0000
											CHANNELS 3 Zrotation Xrotation Yrotation
											End Site
											{
												OFFSET -2.9000 0.0000 0.0000
											}
										}
									}
								}
							}
						}
					}
				}
			}
		}
	}
	JOINT Beta:LeftUpLeg
	{
		OFFSET	9.6338	-3.2733	0.0000
		CHANNELS 3 Xrotation Yrotation Zrotation
		JOINT Beta:LeftLeg
		{
			OFFSET	0.0000	-41.7300	-1.7300
			CHANNELS 3 Xrotation Yrotation Zrotation
			JOINT Beta:LeftFoot
			{
				OFFSET	0.0126	-39.1900	-0.8477
				CHANNELS 3 Xrotation Yrotation Zrotation
				JOINT Beta:LeftToeBase
				{
					OFFSET	-0.1833	-12.1931	8.2823
					CHANNELS 3 Xrotation Yrotation Zrotation
					End Site
					{
						OFFSET 0.0000 0.0000 10.1681
					}
				}
			}
		}
	}
	JOINT Beta:RightUpLeg
	{
		OFFSET	-9.6338	-3.2733	0.0000
		CHANNELS 3 Xrotation Yrotation Zrotation
		JOINT Beta:RightLeg
		{
			OFFSET	0.0000	-41.7300	-1.7300
			CHANNELS 3 Xrotation Yrotation Zrotation
			JOINT Beta:RightFoot
			{
				OFFSET	0.0126	-39.1900	-0.8477
				CHANNELS 3 Xrotation Yrotation Zrotation
				JOINT Beta:RightToeBase
				{
					OFFSET	-0.1833	-12.1931	8.2823
					CHANNELS 3 Xrotation Yrotation Zrotation
					End Site
					{
						OFFSET 0.0032 0.0000 10.1681
					}
				}
			}
		}
	}
}
MOTION
Frames: 4
Frame Time: 0.0333333
-0.0000 95.6997 0.1502 0.0000 -0.0000 -0.0000 8.3332 -0.0000 -0.0000 -8.3335 -0.0000 0.0001 -0.0001 0.0000 0.0000 -0.0000 0.0000 0.0000 -0.0000 0.0000 -0.0000 0.0000 0.0000 -0.0000 0.0000 0.0000 -0.0000 -0.0000 0.0000 0.0000 -0.0000 -0.0000 -0.4167 0.0000 -0.0000 0.0000 0.0000 0.0000 -0.0000 0.0000 0.0000 -0.0000 -0.0000 -0.0000 0.0000 0.0000 0.0000 -0.0000 0.0000 0.0000 -0.0000 -0.0000 0.0000 0.0000 -0.0000 -0.0000 0.0000 0.0000 0.0000 -0.0000 -0.0000 0.0000 0.0000 0.0000 0.0000 -0.0000 0.0000 0.0000 -0.0000 0.0000 0.0000 -0.0000 0.0000 0.0000 -0.0000 -0.0000 -0.0000 -0.0000 0.0000 0.0000 -0.0000 0.0000 0.0000 -0.0000 -0.0000 0.0000 0.0000 -0.0000 0.0000 0.4167 0.0000 -0.0000 -0.0000 0.0000 0.0000 0.0000 0.0000 0.0000 -0.0000 0.0000 -0.0000 -0.0000 0.0000 0.0000 0.0000 -0.0000 0.0000 -0.0000 -0.0000 0.0000 -0.0000 0.0000 0.0000 -0.0000 0.0000 -0.0000 0.0000 0.0000 -0.0000 -0.0000 0.0000 0.0000 0.0000 0.0000 -0.0000 -0.0000 -0.0000 -0.0000 -0.0000 0.0000 -0.0000 -0.0000 -0.0000 0.0000 -0.0000 0.0000 0.0000 -0.0000 -5.0510 -0.2018 -0.2775 14.5420 0.2450 -0.0001 -9.4919 -0.0184 0.2184 -0.5424 0.0000 -0.0000 -5.0521 0.2104 0.2134 14.5452 -0.2439 -0.0003 -9.4938 0.0121 -0.1535 -0.0000 0.0000 -0.0000 
-0.0000 95.4641 0.7098 0.0000 0.8446 -0.0000 8.5966 -0.0000 -0.0000 -8.1169 -0.0000 0.0001 0.3707 0.0000 0.0000 -0.1366 0.0000 0.0000 -0.0000 0.0000 -0.0000 -0.8834 0.0045 -0.0000 -2.5586 -0.3885 1.3743 -12.7445 0.8481 -2.2689 -0.0000 -0.0000 -0.1723 -0.2317 -0.1027 1.2279 -0.4360 -0.1098 0.5096 0.0105 0.0976 0.2425 0.0092 0.0856 0.2127 -0.5900 0.0000 0.1654 -0.3295 -0.0000 0.0000 -0.2033 0.0000 -0.0000 -0.3312 0.0000 0.3820 -0.5235 -0.0000 -0.0000 -0.3284 0.0000 -0.0000 -0.5780 -0.0001 -0.2333 -0.3441 -0.0000 0.0000 -0.4340 0.0000 -0.0000 -0.3900 -0.0001 -0.8219 -0.4182 -0.0000 -0.0000 -0.3482 -0.0000 0.0000 2.5586 -0.3885 -1.3743 12.7445 0.8482 2.2690 0.0000 -0.0000 0.1723 0.2317 0.1027 1.2279 0.4360 -0.1098 -0.5096 -0.0105 0.0976 -0.2425 -0.0092 0.0856 -0.2127 0.3312 0.0000 -0.3820 0.5236 0.0000 0.0000 0.3284 -0.0000 -0.0000 0.5900 0.0000 -0.1654 0.3295 0.0000 -0.0000 0.2034 -0.0000 0.0000 0.5780 -0.0001 0.2333 0.3441 -0.0000 -0.0000 0.4340 0.0000 0.0000 0.3900 -0.0001 0.8219 0.4182 -0.0000 0.0000 0.3482 -0.0000 -0.0000 -7.0814 -0.2025 -0.2920 17.6075 0.6230 0.0821 -10.8549 -0.6803 0.0710 -1.6877 0.0000 0.0000 -6.5999 0.1002 0.2398 16.7736 -0.8150 -0.0811 -11.0204 0.6608 0.0068 0.0000 0.0000 0.0000 
-0.0000 95.4857 1.1359 0.0000 1.6085 -0.0000 9.1216 -0.0000 -0.0000 -7.6852 -0.0000 0.0001 1.1099 0.0000 0.0000 -0.1531 0.0000 0.0000 -0.0000 0.0000 -0.0000 -2.1339 0.0134 -0.0000 -5.8446 -1.0539 2.6856 -26.6071 3.3828 -5.1032 -0.0000 0.0000 -0.0021 -0.7011 -0.2901 3.6783 -1.3021 -0.3422 1.5230 0.0299 0.2924 0.7261 0.0265 0.2564 0.6369 -1.7669 0.0003 0.4962 -0.9863 -0.0000 0.0000 -0.6089 0.0000 -0.0000 -0.9915 0.0004 1.1437 -1.5680 0.0000 -0.0000 -0.9830 -0.0000 -0.0000 -1.7317 -0.0005 -0.7012 -1.0283 -0.0000 -0.0000 -1.2995 0.0000 0.0000 -1.1788 -0.0011 -2.4664 -1.2313 0.0000 -0.0000 -1.0441 -0.0000 0.0000 5.8446 -1.0539 -2.6856 26.6070 3.3830 5.1032 -0.0000 -0.0000 0.0021 0.7011 0.2901 3.6783 1.3021 -0.3422 -1.5230 -0.0299 0.2924 -0.7261 -0.0265 0.2564 -0.6369 0.9915 0.0004 -1.1437 1.5679 0.0000 0.0000 0.9830 -0.0000 0.0000 1.7669 0.0003 -0.4962 0.9862 0.0000 -0.0000 0.6089 0.0000 0.0000 1.7317 -0.0005 0.7012 1.0283 0.0000 0.0000 1.2995 -0.0000 -0.0000 1.1788 -0.0011 2.4664 1.2313 -0.0000 -0.0000 1.0441 0.0000 0.0000 -8.9406 -0.2089 -0.3479 19.8445 1.6463 0.2385 -10.1159 -1.9379 -0.1908 -3.7211 -0.0000 0.0000 -6.8293 0.0132 0.3020 16.2233 -2.0247 -0.2360 -11.0169 1.9018 0.3188 0.0000 0.0000 0.0000 
-0.0000 95.4605 1.5824 0.0000 2.3230 -0.0000 9.5220 -0.0000 -0.0000 -7.3559 -0.0000 0.0001 1.6730 0.0000 0.0000 -0.2028 0.0000 0.0000 -0.0000 0.0000 -0.0000 -3.1591 0.0202 -0.0001 -8.7358 -1.8254 3.9591 -39.8245 6.9455 -6.4167 0.0000 -0.0000 -0.0000 -1.0639 -0.4170 5.5429 -1.9575 -0.5308 2.2909 0.0435 0.4406 1.0938 0.0387 0.3864 0.9594 -2.6620 0.0007 0.7484 -1.4853 -0.0000 0.0000 -0.9173 0.0000 -0.0000 -1.4933 0.0009 1.7226 -2.3626 -0.0000 0.0000 -1.4806 -0.0000 -0.0000 -2.6099 -0.0010 -1.0590 -1.5471 0.0000 -0.0000 -1.9578 -0.0000 -0.0000 -1.7879 -0.0024 -3.7216 -1.8331 0.0000 0.0000 -1.5754 -0.0000 -0.0000 8.7358 -1.8253 -3.9591 39.8244 6.9456 6.4168 -0.0000 -0.0000 0.0000 1.0638 0.4170 5.5429 1.9575 -0.5308 -2.2909 -0.0435 0.4406 -1.0938 -0.0387 0.3864 -0.9594 1.4933 0.0009 -1.7226 2.3626 0.0000 -0.0000 1.4806 -0.0000 -0.0000 2.6620 0.0007 -0.7484 1.4853 -0.0000 -0.0000 0.9173 -0.0000 -0.0000 2.6099 -0.0010 1.0590 1.5471 -0.0000 0.0000 1.9579 0.0000 -0.0000 1.7879 -0.0024 3.7216 1.8331 0.0000 0.0000 1.5754 0.0000 -0.0000 -10.3553 -0.2421 -0.3872 21.4643 2.2927 0.3519 -9.7021 -2.8394 -0.3433 -5.2235 0.0000 0.0000 -7.2064 -0.0558 0.3465 16.1181 -2.8783 -0.3486 -11.2653 2.7811 0.5535 -0.0000 -0.0000 0.0000 
